# xmcd
#
# Track frame offsets:
#	150
#	12337
#	26238
#	37394
#	47124
#	61033
#	74525
#	84619
#	97858
#	111655
#	121708
#	132962
#
# Disc length: 1955 seconds
#
# Revision: 0
# Processed by: cddbd v1.5.1PL0 Copyright (c) Steve Scherf et al.
# Submitted via: EasyCDDAExtractor 4.6.9.1
#
DISCID=a807a10c
DTITLE=Arsen Dedic - Pjevam pjesnike
DYEAR=1900
DGENRE=Ballad
TTITLE0=Gosparu Sismundu-segrtujuci
TTITLE1=Predosjecaj jeseni na velegradskom plocniku
TTITLE2=Moj grob
TTITLE3=Moljenje oprostaja
TTITLE4=Odlazak
TTITLE5=Oprostaj od stare pisace masine
TTITLE6=Pjesma svjetionicara
TTITLE7=Pjesma u svitanje
TTITLE8=Ponovo gore vatre moga doma
TTITLE9=Jesenji motiv
TTITLE10=Svete krave
TTITLE11=U namjeri da budemo isti
EXTD=
EXTT0=
EXTT1=
EXTT2=
EXTT3=
EXTT4=
EXTT5=
EXTT6=
EXTT7=
EXTT8=
EXTT9=
EXTT10=
EXTT11=
PLAYORDER=
